<svg width="28" height="28" viewBox="0 0 28 28" fill="none" xmlns="http://www.w3.org/2000/svg">
<path d="M13.9985 6.89333C12.1589 6.89333 10.3948 7.62408 9.094 8.92483C7.79325 10.2256 7.06249 11.9898 7.06249 13.8293C7.06249 15.6689 7.79325 17.4331 9.094 18.7338C10.3948 20.0346 12.1589 20.7653 13.9985 20.7653C15.838 20.7653 17.6022 20.0346 18.903 18.7338C20.2037 17.4331 20.9345 15.6689 20.9345 13.8293C20.9345 11.9898 20.2037 10.2256 18.903 8.92483C17.6022 7.62408 15.838 6.89333 13.9985 6.89333ZM13.9985 18.3338C12.8034 18.3338 11.6573 17.8591 10.8123 17.014C9.96723 16.169 9.49249 15.0229 9.49249 13.8278C9.49249 12.6328 9.96723 11.4866 10.8123 10.6416C11.6573 9.79656 12.8034 9.32183 13.9985 9.32183C15.1936 9.32183 16.3397 9.79656 17.1847 10.6416C18.0298 11.4866 18.5045 12.6328 18.5045 13.8278C18.5045 15.0229 18.0298 16.169 17.1847 17.014C16.3397 17.8591 15.1936 18.3338 13.9985 18.3338Z" fill="black"/>
<path d="M21.209 8.25533C22.102 8.25533 22.826 7.53137 22.826 6.63833C22.826 5.74528 22.102 5.02133 21.209 5.02133C20.3159 5.02133 19.592 5.74528 19.592 6.63833C19.592 7.53137 20.3159 8.25533 21.209 8.25533Z" fill="black"/>
<path d="M26.7995 4.99433C26.4522 4.0976 25.9216 3.28325 25.2415 2.60342C24.5614 1.92358 23.7469 1.39323 22.85 1.04633C21.8005 0.652363 20.6918 0.439339 19.571 0.416327C18.1265 0.353327 17.669 0.335327 14.006 0.335327C10.343 0.335327 9.87349 0.335327 8.44099 0.416327C7.32107 0.438162 6.21313 0.651229 5.16499 1.04633C4.2679 1.39283 3.45314 1.92303 2.77299 2.60292C2.09285 3.28281 1.56233 4.09736 1.21549 4.99433C0.821448 6.04375 0.608913 7.15258 0.586991 8.27333C0.522491 9.71633 0.502991 10.1738 0.502991 13.8383C0.502991 17.5013 0.502991 17.9678 0.586991 19.4033C0.609491 20.5253 0.820991 21.6323 1.21549 22.6838C1.56331 23.5805 2.09433 24.3947 2.77464 25.0745C3.45495 25.7543 4.26959 26.2847 5.16649 26.6318C6.21264 27.0416 7.32105 27.2699 8.44399 27.3068C9.88849 27.3698 10.346 27.3893 14.009 27.3893C17.672 27.3893 18.1415 27.3893 19.574 27.3068C20.6946 27.284 21.8033 27.0715 22.853 26.6783C23.7496 26.3306 24.5639 25.7998 25.2439 25.1198C25.924 24.4398 26.4548 23.6255 26.8025 22.7288C27.197 21.6788 27.4085 20.5718 27.431 19.4498C27.4955 18.0068 27.515 17.5493 27.515 13.8848C27.515 10.2203 27.515 9.75533 27.431 8.31983C27.4135 7.18324 27.1999 6.0582 26.7995 4.99433ZM24.9725 19.2923C24.9628 20.1568 24.805 21.0132 24.506 21.8243C24.2807 22.4076 23.9359 22.9373 23.4936 23.3793C23.0513 23.8214 22.5214 24.1659 21.938 24.3908C21.1358 24.6885 20.2885 24.8463 19.433 24.8573C18.008 24.9233 17.606 24.9398 13.952 24.9398C10.295 24.9398 9.92149 24.9398 8.46949 24.8573C7.61438 24.8469 6.76748 24.6891 5.96599 24.3908C5.38052 24.1673 4.84849 23.8234 4.40433 23.3813C3.96016 22.9392 3.61374 22.4087 3.38749 21.8243C3.09266 21.0219 2.93496 20.1756 2.92099 19.3208C2.85649 17.8958 2.84149 17.4938 2.84149 13.8398C2.84149 10.1843 2.84149 9.81083 2.92099 8.35733C2.93069 7.49336 3.08847 6.63746 3.38749 5.82683C3.84499 4.64333 4.78249 3.71183 5.96599 3.25883C6.76788 2.96204 7.61453 2.80427 8.46949 2.79233C9.89599 2.72783 10.2965 2.70983 13.952 2.70983C17.6075 2.70983 17.9825 2.70983 19.433 2.79233C20.2886 2.80262 21.136 2.96043 21.938 3.25883C22.5214 3.48424 23.0512 3.82913 23.4934 4.27137C23.9357 4.71361 24.2806 5.24343 24.506 5.82683C24.8008 6.62925 24.9585 7.47557 24.9725 8.33033C25.037 9.75683 25.0535 10.1573 25.0535 13.8128C25.0535 17.4668 25.0535 17.8598 24.989 19.2938H24.9725V19.2923Z" fill="black"/>
</svg>
